<svg width="110" height="12" class="cursor-pointer" viewBox="0 0 506 153" fill="none" xmlns="http://www.w3.org/2000/svg"><path d="M464.13 92.4198H476.22V89.5898L472.43 89.2298V73.7198C474.39 72.7598 476.63 71.7098 478.5 71.7098C482.28 71.7098 482.6 73.7598 482.6 76.5498V92.4198H490.9V89.5898L487.11 89.2298V73.7198L488.34 73.1698C489.84 72.4898 491.9 71.7098 493.22 71.7098C497.05 71.7098 497.23 73.8498 497.23 76.7298V92.4198H505.53V89.5898L501.75 89.2298V74.9898C501.75 72.4798 501.11 70.6098 499.88 69.4698C498.83 68.5098 497.28 68.0598 495.27 68.0598C492.49 68.0598 489.52 69.1998 486.38 70.9798C485.47 69.2898 483.78 68.0598 480.81 68.0598C478.12 68.0598 475.56 68.7898 471.92 70.9298V68.4698H464.16V71.2498L467.9 71.6098V89.2198L464.11 89.5798V92.4198H464.13ZM441.55 80.4198C441.55 74.6298 443.83 70.7998 448.71 70.7998C453.5 70.7998 455.83 74.6298 455.83 80.4198C455.83 86.1698 453.5 89.9998 448.71 89.9998C443.83 89.9998 441.55 86.1698 441.55 80.4198ZM436.58 80.4198C436.58 88.8098 441.05 92.9198 448.71 92.9198C456.37 92.9198 460.8 88.8598 460.8 80.4198C460.8 71.9798 456.33 67.8798 448.71 67.8798C441.05 67.8798 436.58 71.9798 436.58 80.4198ZM411.54 80.0098C411.54 88.6298 415.64 92.8698 424.4 92.8698C428 92.8698 430.92 92.3198 431.97 92.0898V89.1298C430.78 89.3598 427.82 89.9098 425.22 89.9098C418.83 89.9098 416.51 86.5798 416.51 80.0598C416.51 73.4898 419.93 70.8498 425.09 70.8498C426.91 70.8498 428.19 71.1198 428.69 71.2598L429.19 76.4998H432.15V68.7898C430.01 68.3798 428 67.9698 424.22 67.9698C415.87 67.9698 411.54 72.2098 411.54 80.0098ZM389.24 78.9198C389.24 74.0398 391.06 70.7598 395.53 70.7598C400.23 70.7598 402.05 74.5898 402.05 78.9198H389.24ZM384.13 80.0098C384.13 88.5398 387.96 92.9198 397.27 92.9198C400.05 92.9198 402.83 92.6498 405.07 92.0998V89.2698C403.43 89.6398 400.83 89.9998 398.46 89.9998C394.31 89.9998 389.66 89.5898 389.16 81.6998H407.08V80.8798C407.08 72.6198 403.57 67.9298 395.5 67.9298C389.05 67.9198 384.13 71.5698 384.13 80.0098ZM368.76 92.4198H380.85V89.5898L377.06 89.2298V57.7998H368.8V60.6298L372.54 60.9898V89.2198L368.75 89.5798V92.4198H368.76ZM347.64 78.9198C347.64 74.0398 349.46 70.7598 353.94 70.7598C358.64 70.7598 360.46 74.5898 360.46 78.9198H347.64ZM342.53 80.0098C342.53 88.5398 346.36 92.9198 355.67 92.9198C358.45 92.9198 361.23 92.6498 363.47 92.0998V89.2698C361.83 89.6398 359.23 89.9998 356.86 89.9998C352.71 89.9998 348.06 89.5898 347.56 81.6998H365.48V80.8798C365.48 72.6198 361.97 67.9298 353.89 67.9298C347.46 67.9198 342.53 71.5698 342.53 80.0098ZM327.62 86.4898C327.62 91.2298 329.67 92.4198 334.64 92.4198H338.93V89.3198H335.83C333.28 89.3198 332.23 88.9598 332.23 85.8498V71.5698H339.16V68.4698H332.23V59.9398L327.62 61.2198V68.4698H322.6V71.5698H327.62V86.4898V86.4898ZM300.61 80.1498C300.61 76.3598 301.43 72.4898 306.68 72.4898C308.18 72.4898 309.46 72.6698 309.78 72.8098V87.9098H306.68C301.94 87.8998 300.61 84.7098 300.61 80.1498ZM292.36 80.2798C292.36 88.6298 297.01 92.4098 305.72 92.4098H321.55V88.2998L317.49 87.9398V57.7998H305.77V61.9098L309.78 62.2698V68.3798C309.1 68.2398 307.18 68.0598 304.94 68.0598C296.69 68.0598 292.36 72.1198 292.36 80.2798ZM273.34 92.4198H289.12V88.3098L285.06 87.9498V57.7998H273.34V61.9098L277.35 62.2698V87.9498L273.34 88.3098V92.4198V92.4198ZM248.89 92.4198H264.67V88.3098L260.61 87.9498V74.8998C262.02 73.8098 264.49 72.9798 266.31 72.7598L266.77 77.5498H271.47V68.1098C267.27 68.1098 263.49 68.6098 259.66 70.8498V68.4798H248.89V72.5898L252.9 72.9598V87.9698L248.89 88.3298V92.4198V92.4198ZM226.36 80.3798C226.36 75.8198 227.13 72.2198 231.79 72.2198C236.49 72.2198 237.26 75.8198 237.26 80.3798C237.26 84.8998 236.48 88.4998 231.79 88.4998C227.13 88.4898 226.36 84.8898 226.36 80.3798ZM218.1 80.3798C218.1 89.6798 223.67 92.9698 231.78 92.9698C239.94 92.9698 245.51 89.6898 245.51 80.3798C245.51 71.0698 239.95 67.7898 231.78 67.7898C223.67 67.7898 218.1 71.0698 218.1 80.3798ZM179.79 92.4198H190.24L193.66 77.5098H194.34L197.62 92.4198H207.93L212.67 72.9398L215.82 72.5698V68.4598H207.98L203.78 86.3398H203.14L198.94 68.4598H190.27L186.21 86.2498H185.57L181.37 68.4598H171.88V72.5698L175.03 72.9398L179.79 92.4198Z" fill="white"></path><path fillRule="evenodd" clipRule="evenodd" d="M76.1701 0.629883C118.05 0.629883 152 34.5699 152 76.4399C152 118.31 118.05 152.25 76.1701 152.25C34.2901 152.25 0.340088 118.31 0.340088 76.4399C0.350088 34.5799 34.3001 0.629883 76.1701 0.629883Z" fill="white"></path><path fillRule="evenodd" clipRule="evenodd" d="M76.18 132.82C45.02 132.82 19.76 107.55 19.76 76.3997C19.76 45.2497 45.02 19.9897 76.18 19.9897C107.34 19.9897 132.59 45.2497 132.59 76.3997C132.59 107.56 107.34 132.82 76.18 132.82Z" fill="#E30613"></path><path fill-rule="evenodd" clip-rule="evenodd" d="M96.36 84.2601C96.36 90.3601 98.92 91.6501 105.09 91.6501H111.99V86.7901H108.64C105.68 86.7901 104.74 86.0001 104.74 82.8701V70.4801H112.53V65.6201H104.74V56.1001L96.36 57.5401V65.6201H91.04V70.4801H96.36V84.2601Z" fill="white"></path><path fill-rule="evenodd" clipRule="evenodd" d="M119.06 95.21C110.21 109.34 94.5102 118.74 76.6202 118.74C58.7302 118.74 43.0302 109.35 34.1902 95.21H38.1202C45.8202 104.65 63.5002 110.68 76.6202 110.68C89.7402 110.68 107.43 104.66 115.13 95.21H119.06V95.21Z" fill="white"></path><path fill-rule="evenodd" clip-rule="evenodd" d="M48.9301 91.6501H60.2202L63.9202 75.4401H64.6602L68.2102 91.6501H79.3502L84.4801 70.4801L87.8802 70.0801V65.6201H79.4001L74.8701 85.0601H74.1801L69.6402 65.6201H60.2802L55.8902 84.9601H55.2001L50.6602 65.6201H40.4102V70.0801L43.8102 70.4801L48.9301 91.6501Z" fill="white"></path><path fill-rule="evenodd" clip-rule="evenodd" d="M34.1902 56.98C43.0302 42.85 58.7402 33.46 76.6202 33.46C94.5102 33.46 110.21 42.85 119.06 56.98H115.13C107.43 47.55 89.7502 41.52 76.6202 41.52C63.5002 41.52 45.8202 47.55 38.1202 56.98H34.1902Z" fill="white"></path><path fillRule="evenodd" clip-rule="evenodd" d="M76.1201 15.7099C109.61 15.7099 136.77 42.8899 136.77 76.4099C136.77 109.93 109.62 137.11 76.1201 137.11C42.6301 137.11 15.4701 109.93 15.4701 76.4099C15.4801 42.8799 42.6301 15.7099 76.1201 15.7099ZM76.1701 0.629883C118.05 0.629883 152 34.5699 152 76.4399C152 118.31 118.05 152.25 76.1701 152.25C34.2901 152.25 0.340088 118.31 0.340088 76.4399C0.350088 34.5799 34.3001 0.629883 76.1701 0.629883Z" fill="#95C11F"></path></svg>